#!OML:ASF X:\für Bonn\!DataBase\2005_08_10_Bjorn_Final\c3d\bjorn.ASF
:FULLY-SPECIFIED
:DEGREES
213
root -21.3856 19.4336 0.11587 -183.038 -83.7606 -173.409
lowerback -10.1399 2.26701 1.63457
upperback 6.98223 2.84327 -1.09946
thorax 13.5355 1.51635 -1.52425
lowerneck -1.23499 -4.19598 4.98055
upperneck 24.6315 -7.1951 -0.261674
head 7.6124 -3.35404 -1.45039
rclavicle 1.49089e-014 -2.78299e-015
rhumerus -13.2089 3.94383 -66.8543
rradius 118.37
rwrist -23.0601
rhand -14.3993 11.0991
rfingers 7.12502
rthumb 11.7441 -18.5517
lclavicle 1.49089e-014 -2.78299e-015
lhumerus -25.1635 8.69447 84.1128
lradius 20.7071
lwrist -31.8326
lhand -16.186 -6.37686
lfingers 7.12502
lthumb 10.0208 23.3646
rfemur -12.4462 -11.9894 17.3883
rtibia 25.5009
rfoot -7.07486 23.4554
rtoes 5.62826
lfemur -9.32416 14.9155 -16.2928
ltibia 23.8299
lfoot -10.5032 -10.4021
ltoes 0.88263
214
root -21.3788 19.4336 0.117592 -183.177 -83.798 -173.349
lowerback -9.97839 2.24365 1.76819
upperback 7.1151 2.77593 -1.00729
thorax 13.5899 1.49089 -1.51615
lowerneck -1.07028 -4.24133 5.05911
upperneck 24.5235 -7.25421 -0.243191
head 7.54434 -3.378 -1.45251
rclavicle -2.54444e-014 1.64991e-014
rhumerus -13.6439 4.48264 -67.0305
rradius 118.303
rwrist -23.2134
rhand -14.5828 11.4168
rfingers 7.12502
rthumb 11.5671 -18.244
lclavicle -2.54444e-014 1.64991e-014
lhumerus -25.1374 8.18237 84.4073
lradius 20.7973
lwrist -31.3802
lhand -16.1871 -6.43141
lfingers 7.12502
lthumb 10.0196 23.3101
rfemur -12.3553 -11.8276 17.379
rtibia 25.4901
rfoot -7.18016 23.2493
rtoes 5.43341
lfemur -9.26687 15.0056 -16.2685
ltibia 23.842
lfoot -10.4713 -10.5215
ltoes 0.844194
215
root -21.3715 19.4328 0.119499 -183.062 -83.8207 -173.552
lowerback -9.8212 2.22363 1.87325
upperback 7.26588 2.71595 -0.907524
thorax 13.6663 1.46562 -1.48151
lowerneck -0.899179 -4.29241 5.16257
upperneck 24.4054 -7.311 -0.270241
head 7.46896 -3.40265 -1.47264
rclavicle 3.99557e-014 -9.14409e-015
rhumerus -14.1203 5.06218 -67.1875
rradius 118.216
rwrist -23.2583
rhand -14.7126 11.6394
rfingers 7.12502
rthumb 11.442 -18.0283
lclavicle 3.99557e-014 -9.14409e-015
lhumerus -25.1153 7.75378 84.7008
lradius 20.899
lwrist -31.103
lhand -16.1905 -6.51367
lfingers 7.12502
lthumb 10.0163 23.228
rfemur -12.2626 -11.5944 17.3403
rtibia 25.4788
rfoot -7.27965 22.9995
rtoes 5.25779
lfemur -9.19644 15.1393 -16.2719
ltibia 23.8513
lfoot -10.4347 -10.6701
ltoes 0.830359
216
root -21.3639 19.432 0.123022 -183.093 -83.8463 -173.605
lowerback -9.6582 2.18153 1.99299
upperback 7.42446 2.61967 -0.77939
thorax 13.7459 1.42275 -1.43154
lowerneck -0.728341 -4.32921 5.17754
upperneck 24.2952 -7.35283 -0.247134
head 7.40189 -3.42357 -1.4613
rclavicle 1.83379e-014 -7.95139e-015
rhumerus -14.5947 5.72484 -67.339
rradius 118.092
rwrist -23.2584
rhand -14.7494 11.6802
rfingers 7.12502
rthumb 11.4065 -17.9895
lclavicle 1.83379e-014 -7.95139e-015
lhumerus -25.0895 7.35666 85.0274
lradius 21.0013
lwrist -30.7848
lhand -16.2299 -6.59796
lfingers 7.12502
lthumb 9.9784 23.1455
rfemur -12.1692 -11.4355 17.3112
rtibia 25.4628
rfoot -7.33898 22.8158
rtoes 5.14998
lfemur -9.13593 15.2071 -16.2646
ltibia 23.8656
lfoot -10.3884 -10.7724
ltoes 0.844668
217
root -21.3568 19.4326 0.126509 -182.975 -83.8428 -173.802
lowerback -9.5263 2.14391 2.12752
upperback 7.60645 2.5273 -0.668177
thorax 13.8752 1.38414 -1.40614
lowerneck -0.605522 -4.36508 5.18511
upperneck 24.209 -7.40223 -0.200536
head 7.35253 -3.44562 -1.44382
rclavicle -8.94531e-016 -6.75868e-015
rhumerus -15.1077 6.38379 -67.5448
rradius 117.918
rwrist -23.0818
rhand -14.7093 11.6191
rfingers 7.12502
rthumb 11.4451 -18.0485
lclavicle -8.94531e-016 -6.75868e-015
lhumerus -25.0255 7.01036 85.3214
lradius 21.0955
lwrist -30.5417
lhand -16.262 -6.6828
lfingers 7.12502
lthumb 9.94743 23.0622
rfemur -12.0907 -11.2975 17.267
rtibia 25.4515
rfoot -7.40087 22.6828
rtoes 5.00412
lfemur -9.07672 15.2892 -16.2791
ltibia 23.8749
lfoot -10.3707 -10.841
ltoes 0.727002
218
root -21.3474 19.4318 0.130751 -183.014 -83.8529 -173.861
lowerback -9.33948 2.1013 2.28026
upperback 7.79678 2.4231 -0.542103
thorax 13.9798 1.34046 -1.37843
lowerneck -0.464002 -4.40366 5.15911
upperneck 24.0965 -7.4616 -0.0975883
head 7.29484 -3.47132 -1.40191
rclavicle -1.22253e-014 1.68967e-015
rhumerus -15.685 7.08909 -67.7712
rradius 117.721
rwrist -22.7669
rhand -14.7565 11.6118
rfingers 7.12502
rthumb 11.3996 -18.0583
lclavicle -1.22253e-014 1.68967e-015
lhumerus -24.9707 6.67799 85.6258
lradius 21.1929
lwrist -30.3648
lhand -16.3275 -6.80905
lfingers 7.12502
lthumb 9.88425 22.9389
rfemur -11.9956 -11.1125 17.2372
rtibia 25.4407
rfoot -7.4576 22.5067
rtoes 4.79408
lfemur -9.00027 15.3679 -16.2704
ltibia 23.8791
lfoot -10.3092 -10.9367
ltoes 0.833566
219
root -21.3356 19.4314 0.135196 -182.878 -83.8549 -174.094
lowerback -9.14167 2.04498 2.41254
upperback 8.00886 2.30126 -0.411433
thorax 14.1015 1.2859 -1.33766
lowerneck -0.38999 -4.42228 5.12654
upperneck 24.0059 -7.49575 -0.00138963
head 7.25672 -3.48438 -1.36256
rclavicle -3.59645e-014 1.4064e-014
rhumerus -16.2223 7.85759 -68.0667
rradius 117.366
rwrist -22.4188
rhand -14.9174 11.8441
rfingers 7.12502
rthumb 11.2445 -17.8345
lclavicle -3.59645e-014 1.4064e-014
lhumerus -24.865 6.51816 85.904
lradius 21.2828
lwrist -30.3388
lhand -16.3426 -6.97462
lfingers 7.12502
lthumb 9.86968 22.7741
rfemur -11.9075 -10.8337 17.1984
rtibia 25.4266
rfoot -7.57819 22.2165
rtoes 4.55548
lfemur -8.93955 15.4296 -16.2892
ltibia 23.8828
lfoot -10.2808 -10.9897
ltoes 0.72028
